<svg xmlns="http://www.w3.org/2000/svg" viewBox="0 0 24 24" aria-hidden="true" focusable="false">
  <path d="M12 2a10 10 0 100 20 10 10 0 000-20zm6.93 9h-3.01a15.8 15.8 0 00-1.17-5.03A8.03 8.03 0 0118.93 11zM12 4.07c.9 1.17 1.96 3.32 2.42 6.93H9.58C10.04 7.39 11.1 5.24 12 4.07zM4.07 13h3.01c.17 1.77.61 3.53 1.17 5.03A8.03 8.03 0 014.07 13zm3.01-2H4.07a8.03 8.03 0 014.18-5.03A15.8 15.8 0 007.08 11zm1.89 2h6.06c-.2 1.68-.63 3.36-1.24 4.82-.61 1.48-1.3 2.47-1.79 3.11-.49-.64-1.18-1.63-1.79-3.11A14.19 14.19 0 018.97 13zm6.78 5.03A15.8 15.8 0 0016.92 13h3.01a8.03 8.03 0 01-4.18 5.03z" />
</svg>
