<svg xmlns="http://www.w3.org/2000/svg" viewBox="0 0 24 24" aria-hidden="true" focusable="false">
  <circle cx="12" cy="12" r="12" fill="#1a1b20"/>
  <path fill="#ffffff" d="M12 7.35c1.52 0 1.7.01 2.3.04.56.03.86.12 1.06.2.27.1.47.23.67.43.2.2.33.4.43.67.08.2.17.5.2 1.06.03.6.04.78.04 2.3s-.01 1.7-.04 2.3c-.03.56-.12.86-.2 1.06a1.8 1.8 0 0 1-.43.67 1.8 1.8 0 0 1-.67.43c-.2.08-.5.17-1.06.2-.6.03-.78.04-2.3.04s-1.7-.01-2.3-.04c-.56-.03-.86-.12-1.06-.2a1.8 1.8 0 0 1-.67-.43 1.8 1.8 0 0 1-.43-.67c-.08-.2-.17-.5-.2-1.06-.03-.6-.04-.78-.04-2.3s.01-1.7.04-2.3c.03-.56.12-.86.2-1.06.1-.27.23-.47.43-.67.2-.2.4-.33.67-.43.2-.08.5-.17 1.06-.2.6-.03.78-.04 2.3-.04Zm0-1.35c-1.56 0-1.75.01-2.37.04-.62.03-1.04.13-1.4.27a3.15 3.15 0 0 0-1.14.74 3.15 3.15 0 0 0-.74 1.14c-.14.36-.24.78-.27 1.4-.03.62-.04.81-.04 2.37s.01 1.75.04 2.37c.03.62.13 1.04.27 1.4.16.43.4.8.74 1.14.34.34.71.58 1.14.74.36.14.78.24 1.4.27.62.03.81.04 2.37.04s1.75-.01 2.37-.04c.62-.03 1.04-.13 1.4-.27a3.15 3.15 0 0 0 1.14-.74 3.15 3.15 0 0 0 .74-1.14c.14-.36.24-.78.27-1.4.03-.62.04-.81.04-2.37s-.01-1.75-.04-2.37c-.03-.62-.13-1.04-.27-1.4a3.15 3.15 0 0 0-.74-1.14 3.15 3.15 0 0 0-1.14-.74c-.36-.14-.78-.24-1.4-.27-.62-.03-.81-.04-2.37-.04Zm0 3.65A2.35 2.35 0 1 0 12 14.35 2.35 2.35 0 0 0 12 9.65Zm0 3.88A1.53 1.53 0 1 1 12 10.47a1.53 1.53 0 0 1 0 3.06Zm2.99-4.02a.55.55 0 1 1-.55-.55.55.55 0 0 1 .55.55Z"/>
</svg>
