<svg xmlns="http://www.w3.org/2000/svg" viewBox="0 0 24 24" aria-hidden="true" focusable="false">
  <circle cx="12" cy="12" r="12" fill="#1a1b20"/>
  <path fill="#ffffff" d="M19.5 7.03a5.93 5.93 0 0 1-1.7.46 2.96 2.96 0 0 0 1.3-1.64 5.94 5.94 0 0 1-1.88.72 2.95 2.95 0 0 0-5.03 2.69 8.37 8.37 0 0 1-6.08-3.08 2.94 2.94 0 0 0 .91 3.94 2.92 2.92 0 0 1-1.34-.37v.04a2.95 2.95 0 0 0 2.37 2.9c-.25.07-.51.1-.78.1-.19 0-.38-.02-.56-.05a2.95 2.95 0 0 0 2.75 2.05A5.92 5.92 0 0 1 5 16.58a8.36 8.36 0 0 0 4.51 1.32c5.42 0 8.38-4.49 8.38-8.38l-.01-.38a5.94 5.94 0 0 0 1.62-1.5Z"/>
</svg>
